<?xml version="1.0" encoding="UTF-8"?>
<svg id="Layer_1" data-name="Layer 1" xmlns="http://www.w3.org/2000/svg" viewBox="0 0 277.78 267.48">
  <path d="M24.86,1.61c1.9,.4,4.7,.5,6.2,.2,1.4-.3,3.9,.2,5.6,1l3,1.6-.2,9.8c-.2,5.4-.4,18-.5,28s-.5,20.7-.9,23.7c-.7,4.8-.5,5.8,1.2,7.3,1.8,1.7,2,1.7,3.1,.1,1-1.3,1.5-1.5,2.4-.6,1.7,1.7,1.5,2.6-.4,2.4-.9,0-1.9,.5-2.1,1.1-.3,.8,.5,1.3,2.1,1.3,3.1,0,3.3,1.1,.5,3.6-2,1.8-2.1,1.8-3.5-.1-.8-1-1.4-2.2-1.4-2.7,0-.4-.7-.8-1.6-.8-1.3,0-1.5,1.3-1.3,8.2,.2,8.2,.2,8.3-2.5,9.3-1.8,.6-2.5,1.4-2,2.5,.3,.8,.8,3.1,1.1,5s1.3,5.9,2.3,8.8c1.4,4.3,1.8,4.9,2.3,3.1,.5-1.7,1.1-2,3.1-1.5,3.1,.8,3.1,.4,1-5.8-.9-2.6-1.5-4.9-1.3-5,.2-.2,1.4,0,2.6,.5,2.5,.9,6.3,6.4,6.3,9.2,0,2.3,2.6,3.2,5.4,1.9,1.6-.7,2.6-2.3,3-4.6,.4-2.2,2.1-5,4.3-7.2,3.3-3.3,4.1-3.6,9.2-3.7,7.7-.1,20,1.4,20.7,2.5,.3,.5-.2,2-1.1,3.4-1.3,2-2.2,2.4-4.1,2-2.9-.8-4.1,1.3-2.5,4.3,.7,1.3,.8,2.2,.1,2.6-.5,.3-1,1.5-1,2.5s-.9,2.1-2,2.5c-1.2,.4-2.5,2.2-3.2,4.9-.7,2.3-2.5,5.7-4,7.6-2.4,3-3,3.3-4.6,2.3-1.3-.8-2.3-.8-3-.1s-1.9,.6-3.8-.3c-3.1-1.5-5.2-6.7-5.3-13.2-.1-3.4-.3-3.7-3-3.7-4.1,0-5.5,2.4-6.1,10.4-.5,6.6-.7,7.1-3.3,8-3.9,1.4-6-.2-7.3-5.5l-1.1-4.4-.7,3.5c-.4,1.9-.7,5.7-.8,8.5-.3,7.8,1.2,55.6,1.8,59,.5,2.7-.4,9.5-2.1,16.6-.5,2.1,.1,3.7,2.8,7.3,8.1,10.5,6.6,11.6-13.7,11.5-16.7-.1-19.9-.6-20.4-3.3-.3-1.4,.1-1.7,1.6-1.2,1.9,.6,2,.2,1.9-7.8-.1-6.5-.4-8.7-1.5-9.1-1.2-.5-1.2-.8,.4-1.9,1.8-1.4,1.8-1.5-.1-3.6-1.8-2-2-3.9-2.3-17.1-.3-11.8-.1-14.9,1-14.9,.8-.1,.7-.5-.5-1.5-1.7-1.2-1.8-2.7-1.4-16.4,.3-10.1,.8-15.5,1.7-16.6,1-1.2,1-1.8,0-3-.9-1.1-1.1-4-.7-10.2,.3-4.9,.1-9.6-.5-10.9-.7-1.4-.7-3.7,0-7,.8-3.5,.7-5.2-.1-6.2-.9-1.1-.7-1.7,.7-2.7,2.1-1.6,1.4-3.3-2-4.5-2.1-.8-2.2-1.3-1.4-3.6,.6-1.4,1.2-6.3,1.3-10.8,.3-6.5,0-8.3-1.2-9.3-1.3-.9-1.4-1.4-.3-2.4,.6-.7,1.2-2.3,1.2-3.5s-.6-2.5-1.2-2.7c-1-.4-1-.7,0-1.4,.9-.7,1.2-7.1,1-27.4-.1-14.6,.2-27.1,.6-27.7,.4-.7,3.1-1.2,5.9-1.2,3-.1,6-.7,7.1-1.5C16.56,.11,18.16-.19,19.36,.11c1.2,.4,3.6,1.1,5.5,1.5ZM95.76,3.81c.8,.6,1.2,.6,1.2-.1,0-1.9,12.1-.7,13.2,1.2,.7,1.2,1.3,1.4,2.9,.6,1.6-.9,1.9-.7,1.9,.9,0,1.2-1.1,2.3-3.1,3-2.1,.7-3,1.6-2.7,2.8,.2,1.4,1.2,1.7,4.3,1.5,5.1-.3,7.4,1,5.6,3.2-1.6,1.9-4.7,2.1-5.5,.3-.3-.6-.3,0,0,1.5,.5,2.4,.3,2.8-1.5,2.8-1.6,0-2.1,.6-2.1,2.4,0,1.3-.3,3.1-.6,4-.4,1,.3,1.9,2,2.7,3,1.4,3.6,3.3,.7,2.4-1.4-.4-2.6,.3-4.3,2.5s-3.2,3-5.3,3c-23.8-.1-41.3,.4-44.5,1.2-1.4,.4-3.9,.9-5.6,1.2q-3.1,.5-3.7-4.7c-.4-2.9-1.1-8.1-1.6-11.7-2-13.3-2.2-19.7-.7-20.9,1.1-.9,6.8-1.1,21-.7,11,.2,19.8,.1,20.1-.4,.7-1.1,6.4-.2,8.3,1.3Zm125.6,.2c.3,.9-.3,2.4-1.4,3.5-1.9,1.9-2.8,6-1.3,6,.3,0,2.3-1.8,4.3-4,3.3-3.5,4.2-4,6.6-3.4,4.2,1,12.3,5.2,16.6,8.6,2.1,1.6,4.8,2.9,6,3,1.3,0,4.2,.4,6.5,1,3.6,.9,4.1,1.3,4,3.7-.2,2.3,.1,2.6,2.5,2.3,3.2-.3,4.6,1.4,1.9,2.3-3.6,1.1-3.9,6.5-.5,6.5,.8,0,1.2,.4,.9,1-.3,.5-1.4,1-2.3,1s-2.4,.5-3.2,1c-1.2,.7-1.2,1.2-.2,2.2,2.5,2.5,1.4,4.3-2.8,4.4-4.9,.2-7,1.8-7,5.5,0,3.1,2.5,4,4.8,1.7,1.3-1.3,11.2-2,11.2-.8,0,.5-1.2,1.7-2.7,2.8l-2.8,2,2.3,2.4c1.2,1.4,2.2,3.2,2.2,4.1,0,1,.8,1.7,2,1.7,1.6,0,2,.7,2,3.5,0,2.4,.5,3.5,1.5,3.5,.8,0,1.5,.4,1.5,1,0,.5-1.1,1-2.4,1-2.8,0-4.4,1.9-2.6,3,2.1,1.3,.1,5-3.6,6.8-3,1.4-3.7,1.4-4.4,.2-.6-1-1.2-1.1-2.2-.2-.9,.7-6.4,1.1-15.1,1.1-15.5,.1-15.7,0-13.9-7.1,.8-3,.8-4.6,0-5.5-.8-1-.5-1.3,1.1-1.3,1.1,0,2.1,.4,2.1,1,0,.5,.5,1,1,1,1.9,0,1-2.8-1.4-4.3-2-1.4-3.2-4.6-4.1-11.2-.8-6.1-1.8-10.5-2.3-10.5-.4,0-2.7-1.8-5.1-4-4.1-3.7-4.9-4-10.1-4-3.9,0-6.2,.5-7,1.5-.7,.8-1.9,1.5-2.7,1.5-2.3,0-6.4,3.2-5.9,4.6,.3,.7-.1,1.5-.9,1.8s-1.3,2-1.3,4.8c.1,6.3-1.1,10.8-2.8,10.1-.8-.3-1.4-.1-1.4,.5,0,.9,2.1,1.9,6.9,3.1l2.3,.6-3.1,3.5c-3.4,3.8-3.3,3.5-1.2,22.8,.6,5.2,.5,6.5-.8,7.2-1.3,.8-1.4,1.1-.2,1.9,.9,.6,1,1.1,.2,1.5-1.8,1.2-1.2,4.5,1,5.6,1.9,1.1,1.9,1.3,.4,2.4-3.3,2.4-.8,4.3,6.3,4.8,3.7,.3,7.2,.1,7.9-.4s2.2-.7,3.3-.3c1.9,.6,2.1,1.2,1.5,4.6-.5,2.6-.3,3.9,.5,3.9,.6,0,.8,.5,.5,1-.9,1.4-3.5-.7-3.5-2.6,0-.8-.7-1.4-1.6-1.4-1.2,0-1.4,.7-.9,2.9,.5,2.6,.4,2.9-1.3,2.4-1.1-.2-2.3,0-2.6,.6-1,1.6-5.2,1.3-6.6-.4-1-1.2-1-1.9-.2-2.7,1.9-1.9,1.4-3-.9-1.8-1.1,.7-2.7,.9-3.5,.6-1.5-.6-2,.9-.6,1.8,.5,.3,.7,2.3,.6,4.5-.1,2.9,.2,4.1,1.2,4.1,1.7,0,1.7,.5,.4,3.1-.9,1.5-.7,2.1,.6,2.6,1.4,.5,1.3,.8-.7,2.4s-2.2,2-.9,2.9c1.2,.8,1.1,1-.6,1-1.1,0-2.5,.5-3.1,1.1-.8,.8-1.6,.7-3.1-.2-1.6-1-1.9-2-1.5-4.5,.4-2.4,0-3.7-1.7-5.4-2-2-2.7-2.1-5.7-1.2-2.7,.8-3.5,.8-4-.4-.3-.8-1.9-1.4-3.9-1.4s-3.4-.5-3.4-1.1c0-.7-1.2-.9-3.2-.5-3.7,.6-5.1,0-6.1-2.8-.5-1.2-.1-2.3,1-3.1,1.5-1.2,1.5-1.3-.4-1.9-2-.6-2.1-1.3-2-10.6,.2-7.9,.6-10.4,2-12,2.2-2.6,2.2-3.7-.3-5-1.7-.9-1.8-1.4-.8-3.5,.9-2,.8-2.8-.4-4.2-1.8-2.1-.9-5.7,1.6-6.6,2.2-.9,2.1-3.6-.1-3.1-1.5,.4-1.8-.2-1.8-4.4,0-3.5,.6-5.6,1.9-7.1s1.7-2.9,1.3-5.1c-.4-1.6-.1-4.1,.5-5.5,.8-1.9,.8-2.8-.2-4-.7-.8-1.4-3.1-1.6-4.9-.3-3,.1-3.5,3.7-5.1,4.5-2.1,4.6-2.6,1.9-6.3-2.7-3.6-1.8-8.4,2.1-11.7,1.6-1.3,2.9-2.6,2.9-2.9,0-.2-1.4-.6-3.2-.8-1.7-.2-3.3-.8-3.5-1.5-.3-.9,.9-1.1,4.4-.6,4.5,.5,5.1,.3,9.3-3.2,9.2-7.7,20-11.3,34.6-11.4,8.3-.1,10.3,.2,10.8,1.4Zm-61.4,1.9c0,.8-.4,1.8-1,2.1-.5,.3-1-.3-1-1.4,0-1.2,.5-2.1,1-2.1,.6,0,1,.6,1,1.4Zm-7.5,10.3c2.8-.3,3.1,2.9,.3,3.7-3.1,.8-9.8,.8-9.8-.1,0-.4,1-1.7,2.1-2.9,1.6-1.7,2.6-2.1,3.8-1.4,.9,.4,2.5,.8,3.6,.7Zm7.1,4c-1.1,1.1-1.9-.6-1.1-2.4q.8-1.7,1.2,0c.3,1,.2,2.1-.1,2.4Zm-24.1-1.7c.3,.5-.1,1-1,1s-1.3-.5-1-1c.3-.6,.8-1,1-1s.7,.4,1,1Zm3.3,8c2.2,0,1.3,2.5-1.7,4.3l-2.9,1.7-.4-3.6c-.4-3.2-.2-3.5,1.6-3,1.2,.3,2.7,.6,3.4,.6Zm-14.9,5.3c1.4,1.7,.5,2.6-1.9,2-1.1-.3-1.6-1.1-1.3-1.9,.7-1.8,1.7-1.8,3.2-.1ZM51.96,65.51c0,.6,1,.6,2.8-.1l2.7-1-2.2,2.2c-1.8,1.9-2.4,2-3.7,.9-1.8-1.4-2.1-3-.6-3,.6,0,1,.4,1,1Zm10.1,2c1,0,1.9,.5,1.9,1.1,0,1.5-6.3,.6-6.8-1-.3-1,0-1.2,1.2-.8,1,.4,2.6,.7,3.7,.7Zm215.6,7.6c-.3,.3-1.2,.4-1.9,.1-.8-.3-.5-.6,.6-.6,1.1-.1,1.7,.2,1.3,.5ZM92.06,111.61c.6,1.2,.9,3.9,.6,6-.4,2.8-.1,4.1,.9,4.7,1.2,.7,1.2,1.1,0,2.7q-1.5,2-3.8-.3c-1.9-1.9-2.1-2.5-1-4.2,1.6-2.6,1.5-2.8-.5-3.3-1.5-.4-1.5-.6,.5-1.2,2.2-.7,3.2-3.5,1.2-3.5-.5,0-1-.7-1-1.5,0-2.2,1.8-1.8,3.1,.6Zm105.9-.1c0,.5-.4,1-.9,1-.6,0-1.3-.5-1.6-1-.3-.6,.1-1,.9-1,.9,0,1.6,.4,1.6,1Zm-100.5,5.9c-.4,1.3,0,2.3,1.2,3,1.6,.9,1.6,1,.1,1.1-1.8,0-3.3-3.3-2.3-5s1.7-1.1,1,.9Zm108,14c-1.6,1.5-6.7,1.7-7.2,.3-.3-.8,.8-1.2,3.8-1.2,2.7,0,3.9,.4,3.4,.9Zm-19.5,19.1c0,2-2.5,3.8-3.7,2.6-.5-.5,2.4-4.6,3.4-4.6,.1,0,.3,.9,.3,2Zm49,1.4c.6,3.6,2.5,4.4,4,1.7,.6-1.2,.8-2.1,.4-2.1-.3,0-.1-.7,.7-1.6,1.1-1.3,3.2-1.5,13.3-1.1,6.7,.3,13.2,.8,14.6,1,1.4,.3,3.5,.6,4.8,.6,2.6,.1,3,2.1,.4,2.1-1,0-2.8,.7-4,1.6-1.8,1.2-2,1.9-1.1,3.5,.7,1.5,.7,2.4-.1,3.4-.7,.8-.9,1.8-.6,2.3,.3,.6-.1,2.7-1,4.8-1.2,2.8-1.3,4.3-.5,6,.6,1.5,.7,2.5,.1,2.9-1.7,1-1.1,3.7,1.2,6.2,1.8,1.9,1.9,2.3,.5,2.3-2.5,0-3.2,2.2-1.2,3.6,1.7,1.3,1.7,1.5,.1,3.3-1.5,1.7-1.5,1.9-.1,2.5,1.5,.5,1.4,.9-.5,3.6-1.2,1.6-2.8,3-3.6,3s-1.4,.9-1.4,2-.7,2.3-1.5,2.6c-.9,.4-2.7,2.6-4.1,5-4,6.8-15.6,16.9-22.2,19.4-7.8,2.9-20.4,4.4-28.3,3.4-5.9-.8-6.4-1.1-6.1-3.2,.2-1.2-.2-2.2-.7-2.2-.6,0-1.1,.9-1.1,2,0,1.2-.7,2-1.6,2-1.6,0-7.6-3.8-8.2-5.2-.2-.5-.8-.6-1.3-.2-1.3,.8-8.9-5.8-8.9-7.9,0-1-.8-1.7-2-1.7-4.3,0-14.5-12.7-11.1-13.8,.6-.2,0-1.3-1.4-2.4-1.3-1-2.8-3.3-3.3-5.1-.7-2.8-.4-3.5,2.5-6.5,1.9-1.8,3.3-4.3,3.3-5.6,0-4.9,1.2-8.4,3.1-8.9,1.5-.4,1.9-1.4,1.9-5.4,0-4.6,2.5-10.1,3.6-7.8,1.6,3.5,2.4,4,3.8,2.2,.7-.9,2.1-1.7,3-1.7s1.9-.6,2.2-1.3c.7-1.8,6.4-1.8,6.4,0,0,.7,.7,1.6,1.5,1.9,1,.4,1.5,2,1.5,4.5,0,3.5-.3,3.9-2.5,3.9-1.7,0-2.6-.7-3-2.3-.7-2.6-7.1-5.2-7.9-3.2-.2,.7-1.5,1.1-2.8,.8-2-.4-2.3,0-2.3,2.6,0,3.5,.3,3.6,4.1,1.9,2.2-1,2.8-1,3.9,.5,.8,1.1,2.6,1.7,5.4,1.7,2.2,0,4.1,.3,4.2,.7,0,.5,.2,3.3,.3,6.3s.7,6.4,1.3,7.4c.8,1.4,.8,2.5,0,3.8-.9,1.3-.8,2.1,.1,3s1.2,.8,1.2-.6c0-1,.3-1.6,.8-1.4,6.9,3.6,11.7,5.1,16.6,5.5l6.1,.5,5.5-5.1c3.9-3.7,6.1-5,8-4.9,3.1,.2,5.3-.9,4.4-2.4-.4-.6-2.1-.7-4.1-.3-3.3,.6-3.4,.5-2.7-1.7,.5-1.3,.9-6.1,.9-10.8,.1-7.8,1-15.8,2-18.7,.2-.6-.3-1.7-1.1-2.4-1.1-.9-1.2-1.5-.3-2.6,1.9-2.2,4.3-1.1,4.9,2.1Zm-53.6,3.7c-.8,1.3-3,1.1-4.3-.4-.8-1.1-.5-1.3,1.9-.9,1.6,.2,2.7,.8,2.4,1.3Zm-19.7,6.9c-.3,1.2-.1,3.5,.4,5.3,1.4,5.1-2.9,12.2-5.3,8.5-1.1-1.8-1-5.6,.2-6.3,.6-.3,1-1.9,1-3.5,0-3.9,.9-6,2.7-6,1.1,0,1.4,.7,1,2Zm.3,24c0,.5-.2,1-.4,1-.3,0-.8-.5-1.1-1-.3-.6-.1-1,.4-1,.6,0,1.1,.4,1.1,1Zm-97.5,9.8c.6,0,8.7-.2,18.2-.5l17.2-.4,.6,4.3c.8,5.8,.2,12.5-1.3,14-.9,.9-1.2,.7-1.2-1,0-1.2-.4-2.2-1-2.2-.5,0-1,.7-1,1.6s-.6,1.4-1.2,1.2c-6.6-2.5-15-4.9-15.4-4.5-.3,.3,1.2,1.3,3.2,2.3,4.5,2.2,5.3,3.9,2.3,4.7-1.6,.4-2,1-1.4,2.4,.3,1,.9,4.2,1.2,7l.6,5.3h-14.4c-11.5,0-14.9-.3-16.7-1.6-2-1.4-2.3-1.4-2.8,0-.3,.9-1.3,1.6-2.1,1.6-1.2,0-1.3-.6-.7-2.8,1-3.3,1-10.5-.1-23l-.8-9.4,7.9,.5c4.3,.3,8.4,.5,8.9,.5Zm34.2,20.7c1.7,1.9,2,3.3,1.6,6.7-.7,6.6-1,7-4.5,6.6-3.1-.3-3.3-.5-3.4-4.4,0-2.7-.9-5.2-2.2-6.9-1.2-1.5-2.2-3.4-2.2-4.2,0-2.4,8-.7,10.7,2.2Zm10.1,43.7c-.3,.7-1.3,1.3-2.3,1.3s-2-.6-2.2-1.3c-.3-.7,.5-1.2,2.2-1.2s2.5,.5,2.3,1.2Zm-12.8,.8c1.1,.7,.8,1.1-1.5,2-1.6,.6-4,.9-5.4,.7-2.5-.3-2.5-.4,.9-2,4.2-1.9,4.1-1.9,6-.7Zm26,1.6c0,.8-.5,1.2-1,.9-.6-.4-.8-1.1-.5-1.6,.9-1.4,1.5-1.1,1.5,.7Zm-2.7,.8c.3,.8-.5,1.8-1.9,2.5-3.1,1.4-4.4,1.4-4.4,.1,0-.6,.9-1,2-1s2-.7,2-1.5c0-1.9,1.6-2,2.3-.1Z"/>
  <path d="M6.56,20.11c-.8,2.9,.5,5.1,2.3,4,1.5-1,1.4-4.1-.3-5.5-1.1-.9-1.5-.6-2,1.5Z"/>
  <path d="M25.76,26.21c-1.9,2.1-2.4,4.3-.9,4.3s3.3-2.8,2.9-4.6c-.3-1.4-.5-1.4-2,.3Z"/>
  <path d="M12.06,27.11c0,1.1,.3,1.4,.6,.6,.3-.7,.2-1.6-.1-1.9-.3-.4-.6,.2-.5,1.3Z"/>
  <path d="M22.96,53.41c0,1.5,.7,1.9,3.5,1.8,4.1-.1,4.5-1.4,.9-2.7-3.6-1.4-4.4-1.3-4.4,.9Z"/>
  <path d="M13.66,53.21c-.4,.3-.7,1-.7,1.4,0,.9,3.9-.1,4.6-1.2,.6-1-2.9-1.2-3.9-.2Z"/>
  <path d="M10.96,60.51c0,.5,.5,1,1.1,1,.5,0,.7-.5,.4-1-.3-.6-.8-1-1.1-1-.2,0-.4,.4-.4,1Z"/>
  <path d="M25.46,60.41c-.3,.5-.1,1.2,.5,1.6,.5,.3,1-.1,1-.9,0-1.8-.6-2.1-1.5-.7Z"/>
  <path d="M19.56,72.21c.9,3.9,2,4.9,3.9,3.3,2.2-1.8,1.9-2.8-1.5-4.5l-3.1-1.6,.7,2.8Z"/>
  <path d="M28.46,72.51c.3,.5,.8,1,1.1,1,.2,0,.4-.5,.4-1,0-.6-.5-1-1.1-1-.5,0-.7,.4-.4,1Z"/>
  <path d="M7.56,78.91c-2.2,1.9-2.7,2.9-2.3,4.8,.6,2.2,1.2,2.5,5.2,2.4,4.7-.1,6.2-1.9,2.4-2.9-1.5-.4-2-1.1-1.5-2.1,.3-.9,.9-2.3,1.2-3.1,.9-2.3-1.7-1.8-5,.9Z"/>
  <path d="M22.16,82.71c.3,.7,1.5,1.4,2.7,1.6,1.5,.2,2.6,1.4,3.3,3.3,1.2,3.6,4.1,3.6,4.6,.1,.5-3.6-2.5-6.2-7-6.2-2.7,0-3.8,.4-3.6,1.2Z"/>
  <path d="M18.96,84.91c0,.9,.5,1.6,1,1.6,.6,0,1-.4,1-.9,0-.6-.4-1.3-1-1.6-.5-.3-1,.1-1,.9Z"/>
  <path d="M22.46,88.51c-.3,.5-.1,1,.4,1,.6,0,1.1-.5,1.1-1,0-.6-.2-1-.4-1-.3,0-.8,.4-1.1,1Z"/>
  <path d="M19.16,98.71c.3,.7,1.3,1.5,2.4,1.7,1.6,.3,1.7,.1,.5-1.3-1.6-1.9-3.4-2.1-2.9-.4Z"/>
  <path d="M13.96,102.01l2.4,2.6-2.2,.6c-1.8,.4-2,.8-1.1,2,.7,.8,1.5,3.1,1.8,5.1,.6,3.4,.9,3.7,4,3.7,5,0,6-2.3,3.5-8.2-1.2-2.9-2.7-4.9-3.9-5.1-1-.3-2.5-1-3.3-1.8-2.5-2.5-3.6-1.5-1.2,1.1Z"/>
  <path d="M78.96,101.71c0,.7,.4,2,1,2.8,.7,1.2,1.2,1.2,2.9-.4,2.9-2.6,2.6-3.6-.9-3.6-1.7,0-3,.5-3,1.2Z"/>
  <path d="M6.46,110.71c.8,4.9,1.2,5.5,2.5,4.2,1-1-1-8.4-2.3-8.4-.5,0-.6,1.9-.2,4.2Z"/>
  <path d="M25.96,140.31c0,.4,.7,1.6,1.5,2.6q1.5,1.9,1.5-.1c0-1.1-.7-2.3-1.5-2.7-.8-.3-1.5-.2-1.5,.2Z"/>
  <path d="M213.46,8.51c.4,.6,1.1,.8,1.6,.5,1.4-.9,1.1-1.5-.7-1.5-.8,0-1.2,.5-.9,1Z"/>
  <path d="M229.06,10.91c-.9,1.1-.6,2.2,1.4,5.1,1.4,2.1,2.5,4.3,2.5,4.9,0,.5,.8,.2,1.8-.8,1.2-1.3,1.4-2,.5-2.3-.8-.3-1.3-2.2-1.3-4.4,0-3.1-.4-3.9-1.9-3.9-1,0-2.4,.6-3,1.4Z"/>
  <path d="M199.96,13.51c0,.5,.5,1,1,1,.6,0,1-.5,1-1,0-.6-.4-1-1-1-.5,0-1,.4-1,1Z"/>
  <path d="M210.46,24.61c-.4,.6-.5,1.3-.2,1.6,.7,.7,2.7-.6,2.7-1.8s-1.7-1.2-2.5,.2Z"/>
  <path d="M203.96,29.71c0,1.3,.6,1.8,1.7,1.6,2.4-.5,2.7-2.5,.3-3.1-1.5-.4-2,0-2,1.5Z"/>
  <path d="M232.66,39.41c-.9,4.3,.1,7,2.4,6.4,1.5-.4,1.9,0,1.9,1.8,0,2.2,.1,2.2,1.3,.4,.8-1,1.9-1.5,2.6-1.1,1.8,1.1-.3,3.3-4.5,4.6-4.9,1.6-3.3,3,3.5,3h5.8l-.2-4.3c-.2-4.1-3-11.5-5-12.9-.5-.4-2.4-.8-4.1-.8-2.7,0-3.2,.4-3.7,2.9Z"/>
  <path d="M225.16,38.61c.2,.6,.8,1,1.3,1s1.1-.4,1.3-1-.4-1.1-1.3-1.1-1.5,.5-1.3,1.1Z"/>
  <path d="M250.66,55.11c-.8,.8,.1,2.4,1.4,2.4,.5,0,.9-.7,.9-1.5,0-1.5-1.2-2-2.3-.9Z"/>
  <path d="M236.96,56.71l-2.5,1.1,3.3,1c3.5,1.1,6.1-.1,4.8-2.2-.9-1.3-2.3-1.3-5.6,.1Z"/>
  <path d="M243.26,61.21c-2.2,.8-1.4,2.7,1.8,4.5,3.8,2.2,5.3,2.2,6.9,.3,.9-1.1,1-1.9,.3-2.6-1.3-1.3-7.3-2.7-9-2.2Z"/>
  <path d="M234.46,63.51c-.3,.5-.1,1,.4,1,.6,0,1.1-.5,1.1-1,0-.6-.2-1-.4-1-.3,0-.8,.4-1.1,1Z"/>
  <path d="M179.16,65.41c.4,1.3,1.8,1.6,1.9,.4,0-.4-.5-.9-1.1-1.2-.7-.2-1.1,.2-.8,.8Z"/>
  <path d="M180.96,71.41c0,.5,.5,1.3,1,1.6,.6,.3,1,.2,1-.4,0-.5-.4-1.3-1-1.6-.5-.3-1-.2-1,.4Z"/>
  <path d="M236.16,74.51c.1,3.4,1.3,3.2,2-.5,.4-1.6,.1-2.5-.8-2.5-.8,0-1.2,1.2-1.2,3Z"/>
  <path d="M261.46,73.51c-.8,1.2,2,2.4,3.5,1.5,.5-.3,1-1,1-1.6,0-1.2-3.7-1.2-4.5,.1Z"/>
  <path d="M165.46,77.51c.3,.5,.8,1,1.1,1,.2,0,.4-.5,.4-1,0-.6-.5-1-1.1-1-.5,0-.7,.4-.4,1Z"/>
  <path d="M178.96,103.01c0,.8,.7,1.5,1.5,1.5s1.5-.7,1.5-1.5-.7-1.5-1.5-1.5-1.5,.7-1.5,1.5Z"/>
  <path d="M202.16,121.61c.2,.6,.8,1,1.3,1s1.1-.4,1.3-1-.4-1.1-1.3-1.1-1.5,.5-1.3,1.1Z"/>
  <path d="M237.96,157.51c0,.5,.7,1,1.5,1s1.5-.5,1.5-1c0-.6-.7-1-1.5-1s-1.5,.4-1.5,1Z"/>
  <path d="M235.36,160.91c-.8,2.2-.2,2.7,1.6,1.6,1.2-.7,1.2-1.2,.3-2.1-1-1-1.4-.9-1.9,.5Z"/>
  <path d="M249.96,160.51c0,.5,.6,1,1.4,1s1.8-.5,2.1-1c.3-.6-.3-1-1.4-1-1.2,0-2.1,.4-2.1,1Z"/>
  <path d="M241.36,162.01c.3,.8-.2,1.8-1,2.3-2.3,1.3-3.5,7.7-1.9,9.9,2,2.7,4.1,.4,2.5-2.7-1.8-3.3-.5-5.3,2.8-4.5,1.9,.4,3.3,.1,4.1-.8,1.2-1.5,.5-4.7-1.1-4.7-.5,0-.6,.4-.3,1,.3,.5,.2,1-.3,1-.6,0-1.2-.7-1.6-1.5-.3-.8-1.3-1.5-2.2-1.5-1,0-1.4,.5-1,1.5Z"/>
  <path d="M245.66,175.01l-2.8,2.5,2.8,.2c1.5,.1,4.1,.1,5.6,0,2.2-.2,3,.3,3.4,1.8,.6,2.2,3.3,2.4,4.1,.2,.2-.7-.5-1.2-1.8-1.2-1.2,0-1.8-.4-1.5-1,.9-1.5-1.5-4.2-3.1-3.6-.7,.3-1.6,.1-1.9-.4-.9-1.5-1.7-1.2-4.8,1.5Z"/>
  <path d="M233.96,192.51c0,.5,.5,1,1,1,.6,0,1-.5,1-1,0-.6-.4-1-1-1-.5,0-1,.4-1,1Z"/>
  <path d="M236.46,201.61c-.9,1.4,.5,8.9,1.6,8.9,.5,0,.9-.9,.9-2s.5-2,1-2c1.6,0,1.2-1.8-1-4-1.1-1.1-2.2-1.5-2.5-.9Z"/>
  <path d="M213.96,203.61c0,.5,.5,.7,1,.4,.6-.3,1-.8,1-1.1,0-.2-.4-.4-1-.4-.5,0-1,.5-1,1.1Z"/>
  <path d="M205.26,204.21c1,.9,6.7,1,6.7,0,0-.4-1.6-.7-3.7-.7s-3.3,.3-3,.7Z"/>
  <path d="M227.16,204.61c.2,.7,1,1.5,1.7,1.7,.8,.3,1.2-.1,.9-.9-.2-.7-1-1.5-1.7-1.7-.8-.3-1.2,.1-.9,.9Z"/>
  <path d="M250.06,207.11c0,1.1,.3,1.4,.6,.6,.3-.7,.2-1.6-.1-1.9-.3-.4-.6,.2-.5,1.3Z"/>
  <path d="M214.96,210.81c0,1.4,2,3.7,3.2,3.7,.4,0,.8-1.1,.8-2.5,0-1.8-.5-2.5-2-2.5-1.1,0-2,.6-2,1.3Z"/>
  <path d="M234.66,215.21c-1.3,1.2-.7,2.3,1.3,2.3,1.1,0,2-.7,2-1.5,0-1.5-2.1-2.1-3.3-.8Z"/>
  <path d="M226.96,217.51c0,.5,.5,1,1.1,1,.5,0,.7-.5,.4-1-.3-.6-.8-1-1.1-1-.2,0-.4,.4-.4,1Z"/>
  <path d="M183.56,219.11c-.9,2.3-.8,2.3,1.9,1.1,3-1.4,3.3-2.7,.6-2.7-1,0-2.2,.7-2.5,1.6Z"/>
  <path d="M214.96,227.11c0,.8,.5,1.2,1,.9,.6-.3,1-1,1-1.6,0-.5-.4-.9-1-.9-.5,0-1,.7-1,1.6Z"/>
  <path d="M60.96,203.41c0,3.8,.9,6.1,2.4,6.1,1.4,0,1.6-5.7,.3-7.8-1.4-2.1-2.7-1.3-2.7,1.7Z"/>
</svg>